<svg id="Layer_1" data-name="Layer 1" xmlns="http://www.w3.org/2000/svg" viewBox="0 0 56 49"><defs><style>.cls-1{fill:#d1d1d1;}</style></defs><title>Rotate</title><path class="cls-1" d="M55.38,14.6a1.28,1.28,0,0,1-.62.75,1.24,1.24,0,0,1-1,.1l-4-1.11A23.95,23.95,0,0,1,15.37,44.75a1.29,1.29,0,0,1-.52-.79A1.24,1.24,0,0,1,15,43a1.31,1.31,0,0,1,.77-.57,1.28,1.28,0,0,1,.94.13A21.38,21.38,0,0,0,47.26,15l-1.95,4.55A1.33,1.33,0,0,1,45,20a1.13,1.13,0,0,1-.43.29,1.11,1.11,0,0,1-.51.1,1.24,1.24,0,0,1-.5-.1,1.48,1.48,0,0,1-.43-.31,1.14,1.14,0,0,1-.26-.44,1.27,1.27,0,0,1-.08-.51,1.38,1.38,0,0,1,.14-.5l3-6.74a1.25,1.25,0,0,1,.62-.64,1.27,1.27,0,0,1,.9-.08l7,2a1.33,1.33,0,0,1,.46.23,1.55,1.55,0,0,1,.33.39,1.4,1.4,0,0,1,.15.49,1.27,1.27,0,0,1,0,.51Z"/><path class="cls-1" d="M40.65,5.51a1.29,1.29,0,0,1-.78.59,1.26,1.26,0,0,1-1-.13A21.38,21.38,0,0,0,8.31,32.56l1.93-4.38a1.22,1.22,0,0,1,.29-.41A1.3,1.3,0,0,1,11,27.5a1.2,1.2,0,0,1,.49-.08,1.17,1.17,0,0,1,.49.11,1.22,1.22,0,0,1,.41.29,1.26,1.26,0,0,1,.27.42,1.43,1.43,0,0,1,.09.5,1.36,1.36,0,0,1-.12.49L9.61,36a1.27,1.27,0,0,1-.63.64,1.3,1.3,0,0,1-.89.08L1,34.7a1.27,1.27,0,0,1-.78-.6,1.33,1.33,0,0,1-.13-1,1.31,1.31,0,0,1,.6-.78,1.34,1.34,0,0,1,1-.13l4.15,1.17A23.95,23.95,0,0,1,40.17,3.75a1.35,1.35,0,0,1,.38.33,1.37,1.37,0,0,1,.23.45,1.39,1.39,0,0,1,0,.5,1.19,1.19,0,0,1-.16.48Z"/><path class="cls-1" d="M9.24,37.05l-2.15-.64,2.79-1.06Z"/><path class="cls-1" d="M46.34,10.68l2.16.63-2.8,1.06Z"/></svg>