<?xml version="1.0" encoding="UTF-8"?>
<svg width="37px" height="34px" viewBox="0 0 37 34" version="1.1" xmlns="http://www.w3.org/2000/svg" xmlns:xlink="http://www.w3.org/1999/xlink">
    <!-- Generator: Sketch 50.2 (55047) - http://www.bohemiancoding.com/sketch -->
    <title>Insert icon</title>
    <desc>Created with Sketch.</desc>
    <defs></defs>
    <g id="Page-1" stroke="none" stroke-width="1" fill="none" fill-rule="evenodd">
        <g id="Assets-artboard" transform="translate(-906.000000, -410.000000)">
            <g id="Insert-icon" transform="translate(905.000000, 410.000000)">
                <text id="Build" font-family="NunitoSans-Regular, Nunito Sans" font-size="12" font-weight="normal" fill="#000000" fill-opacity="0.87">
                    <tspan x="0" y="33">Build</tspan>
                </text>
                <g id="Group-12" transform="translate(3.000000, 0.000000)">
                    <g id="plus-02" transform="translate(4.000000, 4.000000)" fill="#000000" fill-rule="nonzero">
                        <g id="Group">
                            <g id="Shape">
                                <path d="M0.400490831,6.4 C0.179305852,6.4 0,6.22046439 0,6 C0,5.77908611 0.179979503,5.6 0.400490831,5.6 L5.6,5.6 L5.6,0.400490831 C5.6,0.179305852 5.77953561,0 6,0 C6.22091389,0 6.4,0.179979503 6.4,0.400490831 L6.4,5.6 L11.5995092,5.6 C11.8206941,5.6 12,5.77953561 12,6 C12,6.22091389 11.8200205,6.4 11.5995092,6.4 L6.4,6.4 L6.4,11.5995092 C6.4,11.8206941 6.22046439,12 6,12 C5.77908611,12 5.6,11.8200205 5.6,11.5995092 L5.6,6.4 L0.400490831,6.4 Z"></path>
                            </g>
                        </g>
                    </g>
                    <rect id="Rectangle-13" stroke="#979797" x="0.5" y="0.5" width="19" height="19" rx="2"></rect>
                </g>
                <polygon id="Triangle-2-Copy" fill-opacity="0.54" fill="#000000" points="34.5 12.9979452 31 8 38.0261321 8"></polygon>
            </g>
        </g>
    </g>
</svg>