<svg width="83" height="83" viewBox="0 0 83 83" fill="none" xmlns="http://www.w3.org/2000/svg">
<circle cx="41.5" cy="41.5" r="41.5" fill="#F8F0ED"/>
<path fill-rule="evenodd" clip-rule="evenodd" d="M77.8119 68.3373H4.18808C4.08549 68.3373 4 68.2518 4 68.1493V14.1881C4 14.0855 4.08549 14 4.18808 14H77.8119C77.9145 14 78 14.0855 78 14.1881V68.1493C78 68.2518 77.9145 68.3373 77.8119 68.3373ZM4.37616 67.9526H77.6238V14.3762H4.37616V67.9526Z" fill="#C1806E"/>
<path fill-rule="evenodd" clip-rule="evenodd" d="M74.5803 65.1058H7.41952C7.31693 65.1058 7.23145 65.0203 7.23145 64.9177V17.4196C7.23145 17.317 7.31693 17.2315 7.41952 17.2315H74.5803C74.6829 17.2315 74.7684 17.317 74.7684 17.4196V64.9177C74.7684 65.0203 74.6829 65.1058 74.5803 65.1058ZM7.6076 64.7297H74.3923V17.6077H7.6076V64.7297Z" fill="#DB9173"/>
<path d="M7.41963 68.1322H4.18811V30.6107H7.41963V68.1322Z" fill="#C1806E"/>
<path d="M77.8118 68.1322H74.5803V55.2659H77.8118V68.1322Z" fill="#C1806E"/>
<path d="M43.1116 68.1322H39.8801V45.4517H43.1116V68.1322Z" fill="#DB9173"/>
<path d="M43.1116 30.3884H39.8801V14.1881H43.1116V30.3884Z" fill="#DB9173"/>
<path d="M7.41963 24.2502H4.18811V14.1881H7.41963V24.2502Z" fill="#C1806E"/>
<path d="M77.8118 26.7123H74.5803V14.1881H77.8118V26.7123Z" fill="#C1806E"/>
<path d="M77.8118 46.4947H74.5803V35.8085H77.8118V46.4947Z" fill="#C1806E"/>
<path d="M27.5525 14.1881V17.4196H4.18811V14.1881H27.5525Z" fill="#C1806E"/>
<path d="M26.6548 39.7752V41.143H4.18811V39.7752H26.6548Z" fill="#DB9173"/>
<path d="M43.1115 29.0206V30.3884H33.6564V29.0206H43.1115Z" fill="#C1806E"/>
<path d="M28.4245 29.0206V30.3884H26.3385V29.0206H28.4245Z" fill="#C1806E"/>
<path d="M43.1116 45.4517V46.8195H33.3914V45.4517H43.1116Z" fill="#C1806E"/>
<path d="M28.6038 45.4517V46.8195H25.6544V45.4517H28.6038Z" fill="#C1806E"/>
<path d="M27.0223 33.03H25.6544V14.1881H27.0223V33.03Z" fill="#C1806E"/>
<path d="M27.0225 46.4092H25.6547L25.6461 37.7576H27.014L27.0225 46.4092Z" fill="#C1806E"/>
<path d="M56.9438 14.1881V17.4196H35.7509V14.1881H56.9438Z" fill="#C1806E"/>
<path d="M77.8118 14.1881V17.4196H65.8774V14.1881H77.8118Z" fill="#C1806E"/>
<path d="M77.812 64.9177V68.1493H25.1759V64.9177H77.812Z" fill="#C1806E"/>
<rect x="55" y="23" width="12" height="6" fill="white"/>
<rect x="55" y="45" width="12" height="6" fill="white"/>
<rect x="9.5" y="57" width="12" height="6" fill="white"/>
<path d="M15.866 64.9177V68.1493H4.18811V64.9177H15.866Z" fill="#C1806E"/>
<path fill-rule="evenodd" clip-rule="evenodd" d="M67.2796 29.2428H55.0545C54.9519 29.2428 54.8665 29.1573 54.8665 29.0548V22.908C54.8665 22.7969 54.9519 22.72 55.0545 22.72H67.2796C67.3822 22.72 67.4677 22.7969 67.4677 22.908V29.0548C67.4677 29.1573 67.3822 29.2428 67.2796 29.2428ZM55.2426 28.8667H67.0915V23.0961H55.2426V28.8667Z" fill="#C1806E"/>
<path d="M56.867 29.183C56.7644 29.183 56.679 29.0975 56.679 28.9949V24.6691C56.679 24.5665 56.7644 24.4811 56.867 24.4811C56.9696 24.4811 57.0551 24.5665 57.0551 24.6691V28.9949C57.0551 29.0975 56.9696 29.183 56.867 29.183Z" fill="#C1806E"/>
<path d="M67.1769 24.8572H55.1656C55.0545 24.8572 54.9775 24.7717 54.9775 24.6691C54.9775 24.5665 55.0545 24.4811 55.1656 24.4811H67.1769C67.2795 24.4811 67.365 24.5665 67.365 24.6691C67.365 24.7717 67.2795 24.8572 67.1769 24.8572Z" fill="#C1806E"/>
<path d="M65.4671 29.183C65.3645 29.183 65.2791 29.0975 65.2791 28.9949V24.6691C65.2791 24.5665 65.3645 24.4811 65.4671 24.4811C65.5783 24.4811 65.6552 24.5665 65.6552 24.6691V28.9949C65.6552 29.0975 65.5783 29.183 65.4671 29.183Z" fill="#C1806E"/>
<path fill-rule="evenodd" clip-rule="evenodd" d="M60.1241 65.0887H42.9321C42.8295 65.0887 42.744 65.0032 42.744 64.9006V58.0871C42.744 57.9845 42.8295 57.899 42.9321 57.899H60.1241C60.2352 57.899 60.3207 57.9845 60.3207 58.0871V64.9006C60.3207 65.0032 60.2352 65.0887 60.1241 65.0887ZM43.1202 64.7126H59.936V58.2752H43.1202V64.7126Z" fill="#C1806E"/>
<path d="M51.7804 65.0887C51.6778 65.0887 51.5923 65.0032 51.5923 64.9006V58.0871C51.5923 57.9845 51.6778 57.899 51.7804 57.899C51.8915 57.899 51.977 57.9845 51.977 58.0871V64.9006C51.977 65.0032 51.8915 65.0887 51.7804 65.0887Z" fill="#C1806E"/>
<path d="M53.8663 65.0887C53.7637 65.0887 53.6782 65.0032 53.6782 64.9006V58.0871C53.6782 57.9845 53.7637 57.899 53.8663 57.899C53.9774 57.899 54.0629 57.9845 54.0629 58.0871V64.9006C54.0629 65.0032 53.9774 65.0887 53.8663 65.0887Z" fill="#C1806E"/>
<path d="M55.952 65.0887C55.8494 65.0887 55.7639 65.0032 55.7639 64.9006V58.0871C55.7639 57.9845 55.8494 57.899 55.952 57.899C56.0631 57.899 56.1486 57.9845 56.1486 58.0871V64.9006C56.1486 65.0032 56.0631 65.0887 55.952 65.0887Z" fill="#C1806E"/>
<path d="M58.0382 65.0887C57.9356 65.0887 57.8501 65.0032 57.8501 64.9006V58.0871C57.8501 57.9845 57.9356 57.899 58.0382 57.899C58.1493 57.899 58.2348 57.9845 58.2348 58.0871V64.9006C58.2348 65.0032 58.1493 65.0887 58.0382 65.0887Z" fill="#C1806E"/>
<path fill-rule="evenodd" clip-rule="evenodd" d="M49.6942 64.9006H42.8893C42.7781 64.9006 42.7012 64.8152 42.7012 64.7126V47.8283C42.7012 47.7257 42.7781 47.6403 42.8893 47.6403H49.6942C49.8054 47.6403 49.8909 47.7257 49.8909 47.8283V64.7126C49.8909 64.8152 49.8054 64.9006 49.6942 64.9006ZM43.0773 64.5245H49.5062V48.0164H43.0773V64.5245Z" fill="#C1806E"/>
<path d="M49.6942 56.1807H42.8893C42.7781 56.1807 42.7012 56.1037 42.7012 55.9926C42.7012 55.89 42.7781 55.8045 42.8893 55.8045H49.6942C49.8054 55.8045 49.8909 55.89 49.8909 55.9926C49.8909 56.1037 49.8054 56.1807 49.6942 56.1807Z" fill="#C1806E"/>
<path d="M49.6942 54.1204H42.8893C42.7781 54.1204 42.7012 54.0349 42.7012 53.9323C42.7012 53.8297 42.7781 53.7442 42.8893 53.7442H49.6942C49.8054 53.7442 49.8909 53.8297 49.8909 53.9323C49.8909 54.0349 49.8054 54.1204 49.6942 54.1204Z" fill="#C1806E"/>
<path d="M49.6942 52.0601H42.8893C42.7781 52.0601 42.7012 51.9746 42.7012 51.872C42.7012 51.7694 42.7781 51.6839 42.8893 51.6839H49.6942C49.8054 51.6839 49.8909 51.7694 49.8909 51.872C49.8909 51.9746 49.8054 52.0601 49.6942 52.0601Z" fill="#C1806E"/>
<path d="M49.6942 49.9998H42.8893C42.7781 49.9998 42.7012 49.9143 42.7012 49.8117C42.7012 49.7091 42.7781 49.6236 42.8893 49.6236H49.6942C49.8054 49.6236 49.8909 49.7091 49.8909 49.8117C49.8909 49.9143 49.8054 49.9998 49.6942 49.9998Z" fill="#C1806E"/>
<path fill-rule="evenodd" clip-rule="evenodd" d="M21.7049 63.0626H9.47983C9.37724 63.0626 9.29175 62.9771 9.29175 62.8745V56.7193C9.29175 56.6167 9.37724 56.5312 9.47983 56.5312H21.7049C21.8075 56.5312 21.8929 56.6167 21.8929 56.7193V62.8745C21.8929 62.9771 21.8075 63.0626 21.7049 63.0626ZM9.6679 62.6865H21.5168V56.9073H9.6679V62.6865Z" fill="#C1806E"/>
<path d="M19.8925 61.6349C19.79 61.6349 19.7045 61.5494 19.7045 61.4469V56.7791C19.7045 56.6765 19.79 56.591 19.8925 56.591C19.9951 56.591 20.0806 56.6765 20.0806 56.7791V61.4469C20.0806 61.5494 19.9951 61.6349 19.8925 61.6349Z" fill="#C1806E"/>
<path d="M21.6024 61.6349H9.58249C9.4799 61.6349 9.39441 61.5494 9.39441 61.4469C9.39441 61.3443 9.4799 61.2588 9.58249 61.2588H21.6024C21.7049 61.2588 21.7904 61.3443 21.7904 61.4469C21.7904 61.5494 21.7049 61.6349 21.6024 61.6349Z" fill="#C1806E"/>
<path d="M11.2923 61.6349C11.1897 61.6349 11.1042 61.5494 11.1042 61.4469V56.7791C11.1042 56.6765 11.1897 56.591 11.2923 56.591C11.3949 56.591 11.4804 56.6765 11.4804 56.7791V61.4469C11.4804 61.5494 11.3949 61.6349 11.2923 61.6349Z" fill="#C1806E"/>
<circle cx="61" cy="37" r="4" fill="white"/>
<path fill-rule="evenodd" clip-rule="evenodd" d="M61.1672 40.7925C58.9103 40.7925 57.0723 38.9545 57.0723 36.6975C57.0723 34.4406 58.9103 32.6026 61.1672 32.6026C63.4242 32.6026 65.2622 34.4406 65.2622 36.6975C65.2622 38.9545 63.4242 40.7925 61.1672 40.7925ZM61.1672 32.9787C59.1155 32.9787 57.4484 34.6458 57.4484 36.6975C57.4484 38.7493 59.1155 40.4164 61.1672 40.4164C63.219 40.4164 64.886 38.7493 64.886 36.6975C64.886 34.6458 63.219 32.9787 61.1672 32.9787Z" fill="#C1806E"/>
<path fill-rule="evenodd" clip-rule="evenodd" d="M11.2325 31.3544H11.1214C9.68513 31.3544 8.51392 30.1918 8.51392 28.747V18.7276C8.51392 18.625 8.59941 18.5395 8.70199 18.5395H13.8399C13.9425 18.5395 14.028 18.625 14.028 18.7276V28.747C14.028 28.7584 14.028 28.7698 14.028 28.7812C13.8143 30.2516 12.6174 31.3544 11.2325 31.3544ZM8.89007 18.9242V28.747C8.89007 29.9781 9.8903 30.9783 11.1214 30.9783H11.2325C12.4293 30.9783 13.4638 30.0208 13.6519 28.7385V18.9242H8.89007Z" fill="#DB9173"/>
<path fill-rule="evenodd" clip-rule="evenodd" d="M22.6282 22.3438C21.9956 22.3438 21.3972 22.0788 20.9697 21.6086C20.5508 21.1384 20.3456 20.5143 20.4055 19.8903L20.5252 18.7105C20.5337 18.6165 20.6106 18.5395 20.7047 18.5395H24.5432C24.6372 18.5395 24.7227 18.6165 24.7313 18.7105L24.8509 19.8903C24.9108 20.5143 24.7056 21.1384 24.2782 21.6086C23.8593 22.0788 23.2523 22.3438 22.6282 22.3438ZM20.8757 18.9242L20.7816 19.9244C20.7303 20.4459 20.9013 20.9674 21.2518 21.3521C21.6023 21.7454 22.0982 21.9677 22.6282 21.9677C23.1497 21.9677 23.6541 21.7454 24.0046 21.3521C24.3551 20.9674 24.5261 20.4459 24.4748 19.9244L24.3722 18.9242H20.8757Z" fill="#C1806E"/>
<path fill-rule="evenodd" clip-rule="evenodd" d="M17.2082 25.0709H17.1398C16.2422 25.0709 15.507 24.3357 15.507 23.4381V20.6511C15.507 20.54 15.5924 20.463 15.695 20.463H18.6444C18.7556 20.463 18.8325 20.54 18.8325 20.6511V23.4381C18.8325 24.3357 18.1058 25.0709 17.2082 25.0709ZM15.8831 20.8392V23.4381C15.8831 24.1305 16.4473 24.6948 17.1398 24.6948H17.2082C17.9007 24.6948 18.4564 24.1305 18.4564 23.4381V20.8392H15.8831Z" fill="#C1806E"/>
<path fill-rule="evenodd" clip-rule="evenodd" d="M19.0291 20.8477H15.3188C15.2077 20.8477 15.1307 20.7622 15.1307 20.6597V18.6848C15.1307 18.5822 15.2077 18.4968 15.3188 18.4968H19.0291C19.1317 18.4968 19.2172 18.5822 19.2172 18.6848V20.6597C19.2172 20.7622 19.1317 20.8477 19.0291 20.8477ZM15.5069 20.4716H18.841V18.8729H15.5069V20.4716Z" fill="#C1806E"/>
<path d="M26.6633 38.2022H20.1661C20.0635 38.2022 19.978 38.1167 19.978 38.0141C19.978 37.903 20.0635 37.8175 20.1661 37.8175H26.6633C26.7659 37.8175 26.8514 37.903 26.8514 38.0141C26.8514 38.1167 26.7659 38.2022 26.6633 38.2022Z" fill="#C1806E"/>
<path d="M28.4244 30.4055C28.3218 30.4055 28.2363 30.3286 28.2363 30.2174V24.0878C28.2363 23.9852 28.3218 23.8997 28.4244 23.8997C28.527 23.8997 28.6125 23.9852 28.6125 24.0878V30.2174C28.6125 30.3286 28.527 30.4055 28.4244 30.4055Z" fill="#C1806E"/>
<path d="M28.4244 46.3835C28.3218 46.3835 28.2363 46.2981 28.2363 46.1869V40.1599C28.2363 40.0573 28.3218 39.9718 28.4244 39.9718C28.527 39.9718 28.6125 40.0573 28.6125 40.1599V46.1869C28.6125 46.2981 28.527 46.3835 28.4244 46.3835Z" fill="#C1806E"/>
<path d="M33.6564 30.4226C33.5538 30.4226 33.4683 30.3371 33.4683 30.2345C33.4683 29.79 33.4427 29.354 33.3828 28.9436C33.3743 28.841 33.4427 28.747 33.5452 28.7384C33.6478 28.7213 33.7419 28.7897 33.759 28.8923C33.8188 29.3198 33.8445 29.7729 33.8445 30.2345C33.8445 30.3371 33.759 30.4226 33.6564 30.4226ZM33.2802 27.8237C33.2033 27.8237 33.1263 27.7724 33.1007 27.6955C32.9639 27.2766 32.7929 26.8833 32.5878 26.5328C32.5279 26.4388 32.5621 26.3276 32.6476 26.2763C32.7416 26.225 32.8528 26.2507 32.9126 26.3447C33.1349 26.7123 33.3144 27.1312 33.4598 27.5758C33.494 27.6784 33.4427 27.7895 33.3401 27.8152C33.323 27.8209 33.303 27.8237 33.2802 27.8237ZM31.938 25.5924C31.8867 25.5924 31.844 25.5753 31.8098 25.5411C31.502 25.2419 31.1601 24.994 30.7839 24.7974C30.6899 24.7546 30.6557 24.6349 30.707 24.5494C30.7497 24.4554 30.8694 24.4212 30.9635 24.464C31.3653 24.6777 31.7414 24.9512 32.0663 25.2676C32.1432 25.3359 32.1432 25.4556 32.0748 25.5326C32.0321 25.5668 31.9893 25.5924 31.938 25.5924ZM29.6384 24.3785C29.6213 24.3785 29.607 24.3785 29.5956 24.3785C29.228 24.3015 28.8348 24.2588 28.4244 24.2588C28.3218 24.2588 28.2363 24.1733 28.2363 24.0707C28.2363 23.9681 28.3218 23.8826 28.4244 23.8826C28.8604 23.8826 29.2793 23.9254 29.6726 24.0109C29.7751 24.028 29.8435 24.1305 29.8179 24.2331C29.8008 24.3186 29.7239 24.3785 29.6384 24.3785Z" fill="#C1806E"/>
<path d="M33.6564 46.4519C33.5538 46.4519 33.4683 46.3664 33.4683 46.2553C33.4683 45.8108 33.4427 45.3833 33.3828 44.973C33.3743 44.8704 33.4427 44.7763 33.5452 44.7592C33.6478 44.7421 33.7419 44.8191 33.759 44.9217C33.8188 45.3491 33.8445 45.7937 33.8445 46.2553C33.8445 46.3664 33.759 46.4519 33.6564 46.4519ZM33.2802 43.853C33.2033 43.853 33.1263 43.8017 33.1007 43.7163C32.9639 43.2974 32.7929 42.9041 32.5878 42.5536C32.5279 42.4681 32.5621 42.3484 32.6476 42.2971C32.7416 42.2458 32.8528 42.2715 32.9126 42.3655C33.1349 42.7417 33.3144 43.152 33.4598 43.6051C33.494 43.6992 33.4427 43.8103 33.3401 43.8445C33.323 43.8502 33.303 43.853 33.2802 43.853ZM31.938 41.6132C31.8867 41.6132 31.844 41.5961 31.8098 41.5619C31.502 41.2627 31.1601 41.0148 30.7839 40.8267C30.6899 40.7754 30.6557 40.6643 30.707 40.5702C30.7497 40.4762 30.8694 40.442 30.9635 40.4933C31.3653 40.6985 31.7414 40.972 32.0663 41.2883C32.1432 41.3653 32.1432 41.485 32.0748 41.5534C32.0321 41.5961 31.9893 41.6132 31.938 41.6132ZM29.6384 40.4078C29.6213 40.4078 29.607 40.405 29.5956 40.3993C29.228 40.3223 28.8348 40.2796 28.4244 40.2796C28.3218 40.2796 28.2363 40.2026 28.2363 40.0915C28.2363 39.9889 28.3218 39.9034 28.4244 39.9034C28.8604 39.9034 29.2793 39.9462 29.6726 40.0316C29.7751 40.0573 29.8435 40.1513 29.8179 40.2539C29.8008 40.348 29.7239 40.4078 29.6384 40.4078Z" fill="#C1806E"/>
<path d="M20.1661 38.2022C20.0635 38.2022 19.978 38.1167 19.978 38.0141C19.978 37.5781 20.0208 37.1592 20.1063 36.7659C20.1234 36.6634 20.2259 36.595 20.3285 36.6206C20.4311 36.6377 20.491 36.7403 20.4739 36.8429C20.3969 37.2105 20.3542 37.6037 20.3542 38.0141C20.3542 38.1167 20.2687 38.2022 20.1661 38.2022ZM20.7303 35.7486C20.6961 35.7486 20.6676 35.7429 20.6448 35.7315C20.5508 35.6802 20.5166 35.5691 20.5594 35.475C20.7731 35.0732 21.0381 34.6971 21.363 34.3637C21.4314 34.2953 21.551 34.2953 21.628 34.3637C21.7049 34.4321 21.7049 34.5518 21.628 34.6287C21.3373 34.9365 21.0894 35.2784 20.8928 35.6546C20.8586 35.7144 20.7987 35.7486 20.7303 35.7486ZM22.5342 33.8764C22.4658 33.8764 22.4059 33.8422 22.3717 33.7823C22.3119 33.6969 22.3461 33.5772 22.4316 33.5259C22.8077 33.3036 23.2266 33.1155 23.6712 32.9787C23.7738 32.9445 23.8764 32.9958 23.9106 33.0984C23.9448 33.1925 23.8849 33.3036 23.7909 33.3378C23.372 33.466 22.9787 33.6456 22.6282 33.8507C22.594 33.8678 22.5627 33.8764 22.5342 33.8764ZM25.0134 33.0557C24.9193 33.0557 24.8424 32.9873 24.8253 32.8933C24.8168 32.7907 24.8851 32.6966 24.9877 32.6795C25.4152 32.6197 25.8683 32.594 26.3299 32.594C26.4325 32.594 26.518 32.671 26.518 32.7821C26.518 32.8847 26.4325 32.9702 26.3299 32.9702C25.8854 32.9702 25.4494 32.9958 25.039 33.0557C25.0333 33.0557 25.0248 33.0557 25.0134 33.0557Z" fill="#C1806E"/>
<path fill-rule="evenodd" clip-rule="evenodd" d="M67.2796 51.094H55.0545C54.9519 51.094 54.8665 51.0085 54.8665 50.906V44.7507C54.8665 44.6481 54.9519 44.5626 55.0545 44.5626H67.2796C67.3822 44.5626 67.4677 44.6481 67.4677 44.7507V50.906C67.4677 51.0085 67.3822 51.094 67.2796 51.094ZM55.2426 50.7179H67.0915V44.9473H55.2426V50.7179Z" fill="#C1806E"/>
<path d="M65.4671 49.3329C65.3645 49.3329 65.2791 49.2475 65.2791 49.1449V44.8105C65.2791 44.7079 65.3645 44.6225 65.4671 44.6225C65.5783 44.6225 65.6552 44.7079 65.6552 44.8105V49.1449C65.6552 49.2475 65.5783 49.3329 65.4671 49.3329Z" fill="#C1806E"/>
<path d="M67.1769 49.3329H55.1656C55.0545 49.3329 54.9775 49.2475 54.9775 49.1449C54.9775 49.0423 55.0545 48.9568 55.1656 48.9568H67.1769C67.2795 48.9568 67.365 49.0423 67.365 49.1449C67.365 49.2475 67.2795 49.3329 67.1769 49.3329Z" fill="#C1806E"/>
<path d="M56.867 49.3329C56.7644 49.3329 56.679 49.2475 56.679 49.1449V44.8105C56.679 44.7079 56.7644 44.6225 56.867 44.6225C56.9696 44.6225 57.0551 44.7079 57.0551 44.8105V49.1449C57.0551 49.2475 56.9696 49.3329 56.867 49.3329Z" fill="#C1806E"/>
</svg>
